<svg xmlns="http://www.w3.org/2000/svg" viewBox="0 0 222.43 117.22"><defs><style>.cls-1{fill:#b856d2;}</style></defs><g id="Layer_2" data-name="Layer 2"><g id="Layer_1-2" data-name="Layer 1"><path class="cls-1" d="M0,115.53V1.55H29.49V47.71h20.6V1.55H79.75v114H50.09V65.72H29.49v49.81Z"/><path class="cls-1" d="M138.24,117.22q-15.17,0-24-4.71a26.55,26.55,0,0,1-12.44-13.23,50.87,50.87,0,0,1-3.63-20V38.14q0-11.82,3.63-20.34A26.29,26.29,0,0,1,114.27,4.64Q123.08,0,138.24,0q14.83,0,23.15,4.15a24.48,24.48,0,0,1,11.78,11.61,40.34,40.34,0,0,1,3.46,17.17v9.85H147.8V31.38a48.07,48.07,0,0,0-.42-6.47A8.82,8.82,0,0,0,145,19.77c-1.31-1.36-3.57-2-6.75-2s-5.36.7-6.84,2.11a9.4,9.4,0,0,0-2.8,5.28A36.75,36.75,0,0,0,128,31.8V85.42a30.77,30.77,0,0,0,.74,7,9.26,9.26,0,0,0,3,5.07q2.22,1.9,6.51,1.9,4.6,0,6.59-2A9.38,9.38,0,0,0,147.3,92a43.58,43.58,0,0,0,.5-6.61v-12h28.83v9.85a42.77,42.77,0,0,1-3.38,17.38,25.12,25.12,0,0,1-11.7,12.1Q153.24,117.21,138.24,117.22Z"/><path class="cls-1" d="M192.94,115.53V1.55h29.49v114Z"/></g></g></svg>