<svg xmlns="http://www.w3.org/2000/svg" viewBox="0 0 222.43 170.35"><defs><style>.cls-1{fill:#b856d2;}</style></defs><g id="Layer_2" data-name="Layer 2"><g id="Layer_1-2" data-name="Layer 1"><path class="cls-1" d="M0,115.53V1.55H29.49V47.71h20.6V1.55H79.75v114H50.09V65.72H29.49v49.81Z"/><path class="cls-1" d="M138.24,117.22q-15.17,0-24-4.71a26.55,26.55,0,0,1-12.44-13.23,50.87,50.87,0,0,1-3.63-20V38.14q0-11.82,3.63-20.34A26.29,26.29,0,0,1,114.27,4.64Q123.08,0,138.24,0q14.83,0,23.15,4.15a24.48,24.48,0,0,1,11.78,11.61,40.34,40.34,0,0,1,3.46,17.17v9.85H147.8V31.38a48.07,48.07,0,0,0-.42-6.47A8.82,8.82,0,0,0,145,19.77c-1.31-1.36-3.57-2-6.75-2s-5.36.7-6.84,2.11a9.4,9.4,0,0,0-2.8,5.28A36.75,36.75,0,0,0,128,31.8V85.42a30.77,30.77,0,0,0,.74,7,9.26,9.26,0,0,0,3,5.07q2.22,1.9,6.51,1.9,4.6,0,6.59-2A9.38,9.38,0,0,0,147.3,92a43.58,43.58,0,0,0,.5-6.61v-12h28.83v9.85a42.77,42.77,0,0,1-3.38,17.38,25.12,25.12,0,0,1-11.7,12.1Q153.24,117.21,138.24,117.22Z"/><path class="cls-1" d="M192.94,115.53V1.55h29.49v114Z"/><path d="M0,142.47v-18H2.07v8H8.9v-8h2v18h-2v-8.78H2.07v8.78Z"/><path d="M20.06,142.67a2.54,2.54,0,0,1-1.31-.32,2.1,2.1,0,0,1-.82-.94,3.49,3.49,0,0,1-.28-1.48V129.6h2v10A2.12,2.12,0,0,0,20,141a1.47,1.47,0,0,0,1.13.41,3,3,0,0,0,1.41-.37,6.15,6.15,0,0,0,1.32-.92V129.6h2v12.87h-2V141a6.33,6.33,0,0,1-1.71,1.17A4.71,4.71,0,0,1,20.06,142.67Z"/><path d="M32.27,142.47V129.6h1.82v1.31a5.52,5.52,0,0,1,1.72-1.15,5,5,0,0,1,1.93-.39,3.15,3.15,0,0,1,1.49.36,2.11,2.11,0,0,1,1,1.34A5,5,0,0,1,42,129.8a5,5,0,0,1,2-.43,3.09,3.09,0,0,1,1.28.27,2.14,2.14,0,0,1,1,.91,3.52,3.52,0,0,1,.37,1.76v10.16H44.79V132.36a2,2,0,0,0-.43-1.51,1.64,1.64,0,0,0-1.1-.36,3.57,3.57,0,0,0-1.5.35,5.92,5.92,0,0,0-1.42,1,1,1,0,0,1,0,.24v10.41H38.54V132.36a1.93,1.93,0,0,0-.44-1.51,1.7,1.7,0,0,0-1.11-.36,3.55,3.55,0,0,0-1.48.35,6.13,6.13,0,0,0-1.42,1v10.67Z"/><path d="M55.63,142.67a3.23,3.23,0,0,1-1.61-.39,3.05,3.05,0,0,1-1.1-1,2.65,2.65,0,0,1-.4-1.44,3.63,3.63,0,0,1,.35-1.68A3.46,3.46,0,0,1,54,136.89a10.48,10.48,0,0,1,1.93-1.07q1.2-.52,2.91-1.17v-.91a7.62,7.62,0,0,0-.17-1.86,1.62,1.62,0,0,0-.59-1,2.06,2.06,0,0,0-1.17-.29,2.92,2.92,0,0,0-1.1.2,1.58,1.58,0,0,0-.77.68,2.48,2.48,0,0,0-.3,1.32v.45l-1.93,0a4,4,0,0,1,1-2.91A4.54,4.54,0,0,1,57,129.4a3.59,3.59,0,0,1,2.92,1,4.94,4.94,0,0,1,.86,3.22v6.26c0,.22,0,.5,0,.85s0,.68,0,1,0,.55.07.72H59.14c0-.28-.11-.6-.17-.95s-.1-.63-.12-.83a3.36,3.36,0,0,1-1.14,1.38A3.44,3.44,0,0,1,55.63,142.67Zm.64-1.38a2.27,2.27,0,0,0,1.06-.24,3.37,3.37,0,0,0,.86-.59,3,3,0,0,0,.6-.71v-4l-2,.9a8,8,0,0,0-1.32.77,2.26,2.26,0,0,0-1,2,1.79,1.79,0,0,0,.53,1.46A1.86,1.86,0,0,0,56.27,141.29Z"/><path d="M67.05,142.47V129.6h2v1.33a7.13,7.13,0,0,1,1.69-1.1,4.82,4.82,0,0,1,2-.43,2.39,2.39,0,0,1,1.3.32,2.11,2.11,0,0,1,.81.93,3.69,3.69,0,0,1,.28,1.48v10.34h-2v-10a2,2,0,0,0-.38-1.41,1.42,1.42,0,0,0-1.12-.42,3.13,3.13,0,0,0-1.34.34,5.58,5.58,0,0,0-1.32.87v10.6Z"/><path d="M90,135.85v-1.29H95.7v1.29Z"/><path d="M116.11,142.69a6.28,6.28,0,0,1-3.39-.76,3.86,3.86,0,0,1-1.65-2,8.54,8.54,0,0,1-.46-2.84v-7.18a8.45,8.45,0,0,1,.47-2.93,3.85,3.85,0,0,1,1.68-2,6.65,6.65,0,0,1,3.35-.71,6.37,6.37,0,0,1,3.07.62,3.55,3.55,0,0,1,1.6,1.78,7,7,0,0,1,.48,2.72v1.09h-1.93v-1a7.57,7.57,0,0,0-.23-2,2.22,2.22,0,0,0-.92-1.31,3.77,3.77,0,0,0-2.07-.47,3.93,3.93,0,0,0-2.18.5,2.42,2.42,0,0,0-1,1.41,8,8,0,0,0-.25,2.12v7.68a6.77,6.77,0,0,0,.31,2.23,2.42,2.42,0,0,0,1.06,1.34,4.12,4.12,0,0,0,2.06.44,3.6,3.6,0,0,0,2.07-.49,2.3,2.3,0,0,0,.92-1.37,7.85,7.85,0,0,0,.23-2.06v-1.18h1.93v1.07a8.37,8.37,0,0,1-.44,2.81,3.6,3.6,0,0,1-1.56,1.9A6.09,6.09,0,0,1,116.11,142.69Z"/><path d="M131.32,142.67a4.66,4.66,0,0,1-2.49-.57,3,3,0,0,1-1.28-1.65,8.42,8.42,0,0,1-.36-2.64v-3.56a8.42,8.42,0,0,1,.36-2.64,3,3,0,0,1,1.28-1.65,5.86,5.86,0,0,1,5,0,3,3,0,0,1,1.26,1.65,8.42,8.42,0,0,1,.36,2.64v3.56a8.42,8.42,0,0,1-.36,2.64,3,3,0,0,1-1.26,1.65A4.69,4.69,0,0,1,131.32,142.67Zm0-1.23a2.14,2.14,0,0,0,1.49-.44,2.09,2.09,0,0,0,.58-1.25,14.42,14.42,0,0,0,.1-1.85v-3.74a14.25,14.25,0,0,0-.1-1.84,2.12,2.12,0,0,0-.58-1.24,2,2,0,0,0-1.49-.46,2,2,0,0,0-1.47.46,2.12,2.12,0,0,0-.58,1.24,12.43,12.43,0,0,0-.12,1.84v3.74a12.57,12.57,0,0,0,.12,1.85,2.09,2.09,0,0,0,.58,1.25A2.07,2.07,0,0,0,131.32,141.44Z"/><path d="M141.62,142.47V129.6h1.82v1.31a5.64,5.64,0,0,1,1.72-1.15,5,5,0,0,1,1.93-.39,3.15,3.15,0,0,1,1.49.36,2.08,2.08,0,0,1,1,1.34,5.14,5.14,0,0,1,3.81-1.7,3,3,0,0,1,1.27.27,2.14,2.14,0,0,1,1,.91,3.51,3.51,0,0,1,.38,1.76v10.16h-1.85V132.36a2,2,0,0,0-.43-1.51,1.67,1.67,0,0,0-1.1-.36,3.57,3.57,0,0,0-1.5.35,6,6,0,0,0-1.43,1,1,1,0,0,1,0,.24v10.41H147.9V132.36a1.93,1.93,0,0,0-.45-1.51,1.68,1.68,0,0,0-1.11-.36,3.51,3.51,0,0,0-1.47.35,6,6,0,0,0-1.43,1v10.67Z"/><path d="M162.33,146.7V129.6h1.95v1.06a5.77,5.77,0,0,1,1.21-.86,3.56,3.56,0,0,1,1.77-.4,3.32,3.32,0,0,1,1.81.43,2.92,2.92,0,0,1,1.06,1.17,5.31,5.31,0,0,1,.51,1.65,12.93,12.93,0,0,1,.14,1.89v2.69a11.15,11.15,0,0,1-.34,2.88A3.61,3.61,0,0,1,169.3,142a3.41,3.41,0,0,1-2.25.67,3.25,3.25,0,0,1-1.63-.4,6.72,6.72,0,0,1-1.14-.83v5.26Zm4.4-5.3a1.77,1.77,0,0,0,1.34-.48,2.63,2.63,0,0,0,.6-1.4,14.35,14.35,0,0,0,.15-2.24v-2.74a12.63,12.63,0,0,0-.15-2.13,2.36,2.36,0,0,0-.6-1.3,1.88,1.88,0,0,0-1.37-.45,2.94,2.94,0,0,0-1.38.34,5.68,5.68,0,0,0-1,.67v8.77a4.37,4.37,0,0,0,1.06.67A3.32,3.32,0,0,0,166.73,141.4Z"/><path d="M179.22,142.67a2.57,2.57,0,0,1-1.31-.32,2.1,2.1,0,0,1-.82-.94,3.49,3.49,0,0,1-.28-1.48V129.6h2v10a2.12,2.12,0,0,0,.37,1.42,1.47,1.47,0,0,0,1.13.41,3,3,0,0,0,1.41-.37,6.46,6.46,0,0,0,1.33-.92V129.6h2v12.87h-2V141a6.38,6.38,0,0,1-1.72,1.17A4.68,4.68,0,0,1,179.22,142.67Z"/><path d="M195.1,142.62a3.47,3.47,0,0,1-1.74-.36,1.82,1.82,0,0,1-.83-1,4.33,4.33,0,0,1-.22-1.45v-9.14h-1.9V129.6h1.9v-4h2v4h2.58v1.06h-2.58v9a2.49,2.49,0,0,0,.26,1.32q.25.39,1.11.39l.54,0,.56-.06v1.23c-.27,0-.54.08-.82.1Z"/><path d="M206.26,142.67a5.12,5.12,0,0,1-2.37-.48,2.9,2.9,0,0,1-1.37-1.59,8.1,8.1,0,0,1-.44-3v-3.26a8,8,0,0,1,.45-3,2.91,2.91,0,0,1,1.4-1.54,5.35,5.35,0,0,1,2.33-.45,4.56,4.56,0,0,1,2.52.57,3.08,3.08,0,0,1,1.2,1.75,11.31,11.31,0,0,1,.33,3v1.16H204v2.24a7,7,0,0,0,.22,2,1.8,1.8,0,0,0,.73,1,2.32,2.32,0,0,0,1.27.31,2.83,2.83,0,0,0,1.07-.19,1.44,1.44,0,0,0,.77-.73,3.41,3.41,0,0,0,.28-1.55v-.89h1.9v.71a4.23,4.23,0,0,1-.88,2.82A3.91,3.91,0,0,1,206.26,142.67ZM204,134.94h4.34v-1.07a10.89,10.89,0,0,0-.13-1.75,1.92,1.92,0,0,0-.58-1.11,2.12,2.12,0,0,0-1.41-.39,2.58,2.58,0,0,0-1.3.29,1.65,1.65,0,0,0-.71,1,8.32,8.32,0,0,0-.21,2.13Z"/><path d="M216.53,142.47V129.6h2v1.76a4.33,4.33,0,0,1,1.71-1.46,4.58,4.58,0,0,1,1.86-.44h.16l.18,0v1.74a2.17,2.17,0,0,0-.45-.1l-.51,0a3.84,3.84,0,0,0-1.65.35,3.49,3.49,0,0,0-1.3,1.14v9.89Z"/><path d="M.11,166.45V149.81H2v16.64Z"/><path d="M6,166.45V154.57H7.85v1.24a6.09,6.09,0,0,1,1.56-1,4.37,4.37,0,0,1,1.88-.4,2.23,2.23,0,0,1,1.2.3,1.85,1.85,0,0,1,.74.86,3.11,3.11,0,0,1,.26,1.36v9.54h-1.8v-9.21a1.93,1.93,0,0,0-.35-1.3,1.35,1.35,0,0,0-1-.38,2.8,2.8,0,0,0-1.24.31,5.18,5.18,0,0,0-1.21.8v9.78Z"/><path d="M20.42,166.59a3.14,3.14,0,0,1-1.61-.34,1.69,1.69,0,0,1-.77-.92,4.26,4.26,0,0,1-.2-1.35v-8.42H16.09v-1h1.75V150.9h1.81v3.67H22v1H19.65v8.28a2.31,2.31,0,0,0,.24,1.22c.15.24.5.36,1,.36l.5,0,.52,0v1.13c-.25,0-.5.07-.76.09S20.67,166.59,20.42,166.59Z"/><path d="M28.41,166.63a4.82,4.82,0,0,1-2.19-.44A2.65,2.65,0,0,1,25,164.72a7.54,7.54,0,0,1-.41-2.73v-3a7.27,7.27,0,0,1,.42-2.76,2.62,2.62,0,0,1,1.29-1.42,4.9,4.9,0,0,1,2.15-.42,4.25,4.25,0,0,1,2.33.53,2.88,2.88,0,0,1,1.1,1.61,10.53,10.53,0,0,1,.31,2.77v1.07H26.36v2.07a6.3,6.3,0,0,0,.21,1.82,1.64,1.64,0,0,0,.67,1,2.07,2.07,0,0,0,1.17.29,2.86,2.86,0,0,0,1-.17,1.41,1.41,0,0,0,.71-.68,3.23,3.23,0,0,0,.26-1.43v-.82h1.75v.66a4,4,0,0,1-.81,2.6A3.63,3.63,0,0,1,28.41,166.63Zm-2.05-7.13h4v-1a9.31,9.31,0,0,0-.13-1.62,1.73,1.73,0,0,0-.53-1,1.94,1.94,0,0,0-1.3-.36,2.48,2.48,0,0,0-1.2.26,1.51,1.51,0,0,0-.65,1,7.12,7.12,0,0,0-.2,2Z"/><path d="M35.59,166.45V154.57h1.83v1.63a4.06,4.06,0,0,1,3.29-1.75h.15l.17,0v1.6a2.2,2.2,0,0,0-.42-.09l-.47,0a3.43,3.43,0,0,0-1.52.33,3.13,3.13,0,0,0-1.2,1.05v9.12Z"/><path d="M46.05,166.63a3,3,0,0,1-1.48-.36,2.83,2.83,0,0,1-1-1,2.48,2.48,0,0,1-.37-1.34,3,3,0,0,1,1.32-2.68,9.62,9.62,0,0,1,1.79-1c.73-.32,1.63-.68,2.68-1.07v-.85a7.07,7.07,0,0,0-.16-1.71,1.54,1.54,0,0,0-.54-.9,2,2,0,0,0-1.08-.26,2.64,2.64,0,0,0-1,.18,1.51,1.51,0,0,0-.72.63,2.32,2.32,0,0,0-.27,1.22V158l-1.79,0a3.68,3.68,0,0,1,.93-2.68,4.17,4.17,0,0,1,3-.87,3.36,3.36,0,0,1,2.7,1,4.66,4.66,0,0,1,.79,3v5.77c0,.21,0,.47,0,.79s0,.63.05.92,0,.51.06.66H49.29c0-.26-.1-.55-.16-.88S49,165,49,164.8A3.08,3.08,0,0,1,48,166.08,3.14,3.14,0,0,1,46.05,166.63Zm.6-1.27a2.07,2.07,0,0,0,1-.22,3.07,3.07,0,0,0,.79-.54,3,3,0,0,0,.56-.66v-3.7l-1.82.83a7.6,7.6,0,0,0-1.22.71,2.34,2.34,0,0,0-.7.79,2.41,2.41,0,0,0-.22,1,1.68,1.68,0,0,0,.48,1.35A1.81,1.81,0,0,0,46.65,165.36Z"/><path d="M57.83,166.63a4,4,0,0,1-2.48-.62,2.86,2.86,0,0,1-1.07-1.67A9.67,9.67,0,0,1,54,162v-2.78a9.32,9.32,0,0,1,.32-2.7,2.68,2.68,0,0,1,1.15-1.57,4.47,4.47,0,0,1,2.34-.51,4.52,4.52,0,0,1,2.32.47,2.33,2.33,0,0,1,1.07,1.34,6.7,6.7,0,0,1,.27,2v.55H59.81v-.57a5.26,5.26,0,0,0-.19-1.62,1.33,1.33,0,0,0-.62-.82,2.5,2.5,0,0,0-1.15-.23,2.1,2.1,0,0,0-1.28.33,1.66,1.66,0,0,0-.6,1.07,10.69,10.69,0,0,0-.15,2v3.33a5.36,5.36,0,0,0,.42,2.51,1.72,1.72,0,0,0,1.64.73,2,2,0,0,0,1.26-.32,1.48,1.48,0,0,0,.54-1,7.85,7.85,0,0,0,.13-1.58V162h1.68v.57a7.46,7.46,0,0,1-.27,2.11,2.55,2.55,0,0,1-1,1.44A4.23,4.23,0,0,1,57.83,166.63Z"/><path d="M68.15,166.59a3.11,3.11,0,0,1-1.61-.34,1.65,1.65,0,0,1-.77-.92,4.26,4.26,0,0,1-.2-1.35v-8.42H63.82v-1h1.75V150.9h1.81v3.67h2.37v1H67.38v8.28a2.43,2.43,0,0,0,.23,1.22c.16.24.5.36,1,.36l.5,0,.51,0v1.13q-.36.06-.75.09Z"/><path d="M72.75,152.93v-2h1.8v2Zm0,13.52V154.57h1.8v11.88Z"/><path d="M82,166.63a4.33,4.33,0,0,1-2.3-.52,2.76,2.76,0,0,1-1.17-1.52,7.56,7.56,0,0,1-.34-2.44v-3.28a7.56,7.56,0,0,1,.34-2.44,2.76,2.76,0,0,1,1.17-1.52,5.37,5.37,0,0,1,4.61,0,2.81,2.81,0,0,1,1.17,1.52,7.87,7.87,0,0,1,.33,2.44v3.28a7.87,7.87,0,0,1-.33,2.44,2.81,2.81,0,0,1-1.17,1.52A4.3,4.3,0,0,1,82,166.63Zm0-1.13a1.93,1.93,0,0,0,1.37-.41,1.89,1.89,0,0,0,.54-1.15,14,14,0,0,0,.1-1.7v-3.46a13.85,13.85,0,0,0-.1-1.69,1.91,1.91,0,0,0-.54-1.15,1.89,1.89,0,0,0-1.37-.42,1.86,1.86,0,0,0-1.36.42,2,2,0,0,0-.53,1.15,10.65,10.65,0,0,0-.11,1.69v3.46a10.78,10.78,0,0,0,.11,1.7,1.94,1.94,0,0,0,.53,1.15A1.91,1.91,0,0,0,82,165.5Z"/><path d="M89.2,166.45V154.57H91v1.24a6.09,6.09,0,0,1,1.56-1,4.34,4.34,0,0,1,1.88-.4,2.27,2.27,0,0,1,1.2.3,1.85,1.85,0,0,1,.74.86,3.27,3.27,0,0,1,.26,1.36v9.54H94.84v-9.21a1.93,1.93,0,0,0-.34-1.3,1.37,1.37,0,0,0-1-.38,2.8,2.8,0,0,0-1.24.31,5.18,5.18,0,0,0-1.21.8v9.78Z"/><path d="M108.94,166.45V151h-3.78v-1.21h9.33V151h-3.67v15.43Z"/><path d="M120.52,166.63a4.82,4.82,0,0,1-2.19-.44,2.69,2.69,0,0,1-1.26-1.47,7.54,7.54,0,0,1-.41-2.73v-3a7.05,7.05,0,0,1,.43-2.76,2.57,2.57,0,0,1,1.28-1.42,4.93,4.93,0,0,1,2.15-.42,4.23,4.23,0,0,1,2.33.53,2.83,2.83,0,0,1,1.1,1.61,10.12,10.12,0,0,1,.31,2.77v1.07h-5.79v2.07a6.3,6.3,0,0,0,.21,1.82,1.64,1.64,0,0,0,.67,1,2.07,2.07,0,0,0,1.17.29,2.78,2.78,0,0,0,1-.17,1.38,1.38,0,0,0,.71-.68,3.23,3.23,0,0,0,.26-1.43v-.82h1.76v.66a4,4,0,0,1-.82,2.6A3.63,3.63,0,0,1,120.52,166.63Zm-2-7.13h4v-1a8.42,8.42,0,0,0-.13-1.62,1.73,1.73,0,0,0-.53-1,1.92,1.92,0,0,0-1.3-.36,2.48,2.48,0,0,0-1.2.26,1.55,1.55,0,0,0-.65,1,7.54,7.54,0,0,0-.2,2Z"/><path d="M131.11,166.63a4,4,0,0,1-2.47-.62,2.87,2.87,0,0,1-1.08-1.67,10.17,10.17,0,0,1-.26-2.39v-2.78a9.69,9.69,0,0,1,.32-2.7,2.72,2.72,0,0,1,1.15-1.57,4.51,4.51,0,0,1,2.34-.51,4.56,4.56,0,0,1,2.33.47,2.31,2.31,0,0,1,1.06,1.34,6.7,6.7,0,0,1,.27,2v.55h-1.68v-.57a5.65,5.65,0,0,0-.18-1.62,1.37,1.37,0,0,0-.62-.82,2.5,2.5,0,0,0-1.15-.23,2.16,2.16,0,0,0-1.29.33,1.65,1.65,0,0,0-.59,1.07,10.69,10.69,0,0,0-.15,2v3.33a5.36,5.36,0,0,0,.42,2.51,1.71,1.71,0,0,0,1.63.73,2,2,0,0,0,1.26-.32,1.49,1.49,0,0,0,.55-1,8.76,8.76,0,0,0,.12-1.58V162h1.68v.57a7.46,7.46,0,0,1-.27,2.11,2.55,2.55,0,0,1-1.05,1.44A4.23,4.23,0,0,1,131.11,166.63Z"/><path d="M138.06,166.45V149.81h1.81v6a6.55,6.55,0,0,1,1.58-1,4.48,4.48,0,0,1,1.91-.4,2.23,2.23,0,0,1,1.2.3,1.85,1.85,0,0,1,.74.86,3.27,3.27,0,0,1,.26,1.36v9.54h-1.83v-9.21a2,2,0,0,0-.33-1.3,1.33,1.33,0,0,0-1-.38,2.91,2.91,0,0,0-1.27.32,5.45,5.45,0,0,0-1.23.81v9.76Z"/><path d="M149.1,166.45V154.57h1.81v1.24a6.09,6.09,0,0,1,1.56-1,4.34,4.34,0,0,1,1.88-.4,2.27,2.27,0,0,1,1.2.3,1.85,1.85,0,0,1,.74.86,3.27,3.27,0,0,1,.26,1.36v9.54h-1.81v-9.21a1.93,1.93,0,0,0-.34-1.3,1.37,1.37,0,0,0-1-.38,2.8,2.8,0,0,0-1.24.31,5.18,5.18,0,0,0-1.21.8v9.78Z"/><path d="M163.62,166.63a4.33,4.33,0,0,1-2.3-.52,2.76,2.76,0,0,1-1.17-1.52,7.56,7.56,0,0,1-.34-2.44v-3.28a7.56,7.56,0,0,1,.34-2.44,2.76,2.76,0,0,1,1.17-1.52,5.39,5.39,0,0,1,4.62,0,2.79,2.79,0,0,1,1.16,1.52,7.87,7.87,0,0,1,.33,2.44v3.28a7.87,7.87,0,0,1-.33,2.44,2.79,2.79,0,0,1-1.16,1.52A4.36,4.36,0,0,1,163.62,166.63Zm0-1.13a2,2,0,0,0,1.38-.41,1.94,1.94,0,0,0,.53-1.15,14,14,0,0,0,.1-1.7v-3.46a13.85,13.85,0,0,0-.1-1.69,2,2,0,0,0-.53-1.15,1.93,1.93,0,0,0-1.38-.42,1.88,1.88,0,0,0-1.36.42,2,2,0,0,0-.53,1.15,12,12,0,0,0-.11,1.69v3.46a12.13,12.13,0,0,0,.11,1.7,1.64,1.64,0,0,0,1.89,1.56Z"/><path d="M171.07,166.45V149.81h1.81v16.64Z"/><path d="M180.22,166.63a4.33,4.33,0,0,1-2.3-.52,2.76,2.76,0,0,1-1.17-1.52,7.84,7.84,0,0,1-.34-2.44v-3.28a7.84,7.84,0,0,1,.34-2.44,2.76,2.76,0,0,1,1.17-1.52,5.39,5.39,0,0,1,4.62,0,2.79,2.79,0,0,1,1.16,1.52,7.87,7.87,0,0,1,.33,2.44v3.28a7.87,7.87,0,0,1-.33,2.44,2.79,2.79,0,0,1-1.16,1.52A4.36,4.36,0,0,1,180.22,166.63Zm0-1.13a2,2,0,0,0,1.38-.41,1.88,1.88,0,0,0,.53-1.15,12.25,12.25,0,0,0,.1-1.7v-3.46a12.1,12.1,0,0,0-.1-1.69,1.91,1.91,0,0,0-.53-1.15,1.93,1.93,0,0,0-1.38-.42,1.88,1.88,0,0,0-1.36.42,2,2,0,0,0-.53,1.15,12,12,0,0,0-.11,1.69v3.46a12.13,12.13,0,0,0,.11,1.7,2,2,0,0,0,.53,1.15A1.92,1.92,0,0,0,180.22,165.5Z"/><path d="M191.06,170.35a11.66,11.66,0,0,1-2.45-.23,3.45,3.45,0,0,1-1.59-.71,1.51,1.51,0,0,1-.56-1.22,1.82,1.82,0,0,1,.35-1.09,3.36,3.36,0,0,1,.89-.87,6.85,6.85,0,0,1,1.11-.63,2.94,2.94,0,0,1-1.2-.5,1,1,0,0,1-.38-.79,1.61,1.61,0,0,1,.45-1.11,8.46,8.46,0,0,1,1.25-1,3.19,3.19,0,0,1-1.39-1.48,5.52,5.52,0,0,1,0-4.2,3.53,3.53,0,0,1,1.31-1.51,4.14,4.14,0,0,1,2.28-.57,3.83,3.83,0,0,1,2,.43,3,3,0,0,1,1.08,1.07,3.94,3.94,0,0,1,.77-.73,3.7,3.7,0,0,1,1.16-.61l.38-.12.49,1a5.24,5.24,0,0,0-.88.23c-.32.12-.61.25-.88.38a2.58,2.58,0,0,0-.59.41,5.34,5.34,0,0,1,.31,1,5.22,5.22,0,0,1,.13,1.07,5.47,5.47,0,0,1-.38,2.11,3,3,0,0,1-1.25,1.49,4.21,4.21,0,0,1-2.3.55,5.32,5.32,0,0,1-.78-.06c-.27,0-.5-.09-.68-.13a5.3,5.3,0,0,0-.67.67,1.08,1.08,0,0,0-.29.69.47.47,0,0,0,.28.44,3,3,0,0,0,.9.24l2.28.26a6.19,6.19,0,0,1,2.66.88,2.31,2.31,0,0,1,.32,3.42,3.67,3.67,0,0,1-1.67.91A9.08,9.08,0,0,1,191.06,170.35Zm.08-1.21a6.28,6.28,0,0,0,2.32-.36,1.21,1.21,0,0,0,.89-1.16,1.26,1.26,0,0,0-.21-.71,1.61,1.61,0,0,0-.79-.54,8.77,8.77,0,0,0-1.72-.36l-1.81-.2c-.24.14-.51.3-.79.5a3.9,3.9,0,0,0-.73.67,1.32,1.32,0,0,0-.31.84,1.06,1.06,0,0,0,.77,1A6.63,6.63,0,0,0,191.14,169.14Zm0-7.5a2.36,2.36,0,0,0,1.25-.28,1.79,1.79,0,0,0,.69-.73,2.94,2.94,0,0,0,.32-1,6.87,6.87,0,0,0,.09-1.09,5.54,5.54,0,0,0-.1-1.07,3.38,3.38,0,0,0-.34-1,1.94,1.94,0,0,0-.71-.74,2.32,2.32,0,0,0-1.2-.27,2.37,2.37,0,0,0-1.22.28,2.07,2.07,0,0,0-.75.75,3.47,3.47,0,0,0-.36,1,6.36,6.36,0,0,0-.09,1,6.51,6.51,0,0,0,.08,1.05,3.19,3.19,0,0,0,.35,1,2,2,0,0,0,.74.75A2.43,2.43,0,0,0,191.16,161.64Z"/><path d="M199.15,152.93v-2H201v2Zm0,13.52V154.57H201v11.88Z"/><path d="M208.46,166.63a4.76,4.76,0,0,1-2.19-.44,2.7,2.7,0,0,1-1.27-1.47,7.57,7.57,0,0,1-.4-2.73v-3a7.27,7.27,0,0,1,.42-2.76,2.64,2.64,0,0,1,1.28-1.42,5,5,0,0,1,2.16-.42,4.21,4.21,0,0,1,2.32.53,2.83,2.83,0,0,1,1.1,1.61,10.12,10.12,0,0,1,.31,2.77v1.07H206.4v2.07a6.3,6.3,0,0,0,.21,1.82,1.64,1.64,0,0,0,.67,1,2.11,2.11,0,0,0,1.18.29,2.86,2.86,0,0,0,1-.17,1.4,1.4,0,0,0,.7-.68,3.23,3.23,0,0,0,.26-1.43v-.82h1.76v.66a4,4,0,0,1-.82,2.6A3.6,3.6,0,0,1,208.46,166.63Zm-2.06-7.13h4v-1a9.41,9.41,0,0,0-.12-1.62,1.74,1.74,0,0,0-.54-1,1.91,1.91,0,0,0-1.29-.36,2.43,2.43,0,0,0-1.2.26,1.52,1.52,0,0,0-.66,1,7.54,7.54,0,0,0-.2,2Z"/><path d="M218.77,166.63a3.91,3.91,0,0,1-2.72-.91,3.63,3.63,0,0,1-1.16-2.46l1.51-.37a3.24,3.24,0,0,0,.76,2,2.34,2.34,0,0,0,1.74.63,2.16,2.16,0,0,0,1.44-.44,1.55,1.55,0,0,0,.51-1.24,2,2,0,0,0-.42-1.16,5.66,5.66,0,0,0-1.34-1.23L217.16,160a6.28,6.28,0,0,1-1.46-1.36,2.66,2.66,0,0,1-.49-1.62,2.35,2.35,0,0,1,.43-1.45,2.79,2.79,0,0,1,1.19-.9,4.44,4.44,0,0,1,1.79-.32,3.3,3.3,0,0,1,2.48.87,3.38,3.38,0,0,1,.91,2.25l-1.28.35a4,4,0,0,0-.3-1.33,1.72,1.72,0,0,0-.68-.77,2.14,2.14,0,0,0-1.05-.24,2.12,2.12,0,0,0-1.33.38,1.25,1.25,0,0,0-.5,1.06,1.83,1.83,0,0,0,.24.94,3.75,3.75,0,0,0,.92.92l2,1.5q.58.44,1.14.93a4.44,4.44,0,0,1,.89,1.1,2.83,2.83,0,0,1,.34,1.43,2.6,2.6,0,0,1-.45,1.55,2.93,2.93,0,0,1-1.28,1A4.93,4.93,0,0,1,218.77,166.63Z"/></g></g></svg>